<?xml version="1.0" encoding="UTF-8" standalone="no"?>
<svg width="60px" height="60px" viewBox="0 0 60 60" version="1.1" xmlns="http://www.w3.org/2000/svg" xmlns:xlink="http://www.w3.org/1999/xlink" xmlns:sketch="http://www.bohemiancoding.com/sketch/ns">
    <!-- Generator: Sketch 3.2.2 (9983) - http://www.bohemiancoding.com/sketch -->
    <title>Meatham</title>
    <desc>Created with Sketch.</desc>
    <defs></defs>
    <g id="stroked" stroke="none" stroke-width="1" fill="none" fill-rule="evenodd" sketch:type="MSPage">
        <g id="Kitchen_sliced" sketch:type="MSLayerGroup" transform="translate(-720.000000, -600.000000)"></g>
        <g id="Kitchen" sketch:type="MSLayerGroup" transform="translate(-727.000000, -598.000000)" stroke="#535353" stroke-width="2" stroke-linejoin="round">
            <g id="Meat" transform="translate(758.000000, 629.000000) rotate(-11.000000) translate(-758.000000, -629.000000) translate(730.000000, 608.000000)" sketch:type="MSShapeGroup">
                <path d="M11.8509886,40.844187 C11.9283846,40.9651136 12.0067876,41.0859308 12.0862075,41.2066318 C51.2577609,32.4132635 47.878675,8.2047361 47.878675,8.2047361 C47.878675,8.2047361 41.3879245,15.8753644 32.0548267,10.5255418 C22.721729,5.17571929 10.9837535,2.6824914 10.9837535,2.6824914 C10.9837535,2.6824914 10.9253901,2.7943451 10.8220231,3.00876517 C16.4720286,3.316739 21,11.7015255 21,22 C21,31.6650789 17.0118757,39.6446291 11.8509886,40.844187 Z" id="Path-1542" stroke-linecap="round"></path>
                <ellipse id="Oval-674" stroke-linecap="round" cx="10.5" cy="22" rx="10.5" ry="19"></ellipse>
                <ellipse id="Oval-675" stroke-linecap="round" cx="9" cy="23" rx="4" ry="11"></ellipse>
                <path d="M47.8321259,7.93826618 C47.8321259,7.93826618 43.4151851,5.84213109 44.2264697,0.42485945" id="Path-1543" stroke-linecap="round"></path>
                <path d="M48.1883691,8.41183215 C48.1883691,8.41183215 45.5465872,8.9571219 50.9596582,4.62995438 C56.3727292,0.302786855 55.8637477,4.62995426 55.8637477,4.62995426" id="Path-1544" stroke-linecap="round"></path>
                <path d="M21.7562011,26.9173453 L30.7562011,32.9173453" id="Line" stroke-linecap="square"></path>
                <path d="M21.7286189,21.8184004 L34.7286189,29.8184004" id="Line" stroke-linecap="square"></path>
                <path d="M33.8345985,11.9469641 L23.9654289,36.5152259" id="Line" stroke-linecap="square"></path>
                <path d="M37.7611074,12.7102001 L34.0805721,21.1632269" id="Line" stroke-linecap="square"></path>
            </g>
        </g>
    </g>
</svg>