<?xml version="1.0" encoding="UTF-8" standalone="no"?>
<svg width="60px" height="60px" viewBox="0 0 60 60" version="1.1" xmlns="http://www.w3.org/2000/svg" xmlns:xlink="http://www.w3.org/1999/xlink" xmlns:sketch="http://www.bohemiancoding.com/sketch/ns">
    <!-- Generator: Sketch 3.2.2 (9983) - http://www.bohemiancoding.com/sketch -->
    <title>Radish</title>
    <desc>Created with Sketch.</desc>
    <defs></defs>
    <g id="stroked" stroke="none" stroke-width="1" fill="none" fill-rule="evenodd" sketch:type="MSPage">
        <g id="Kitchen" sketch:type="MSLayerGroup" transform="translate(-727.000000, -718.000000)" stroke="#535353" stroke-width="2" stroke-linecap="round" stroke-linejoin="round">
            <g id="Radish" transform="translate(756.723682, 751.545280) rotate(-300.000000) translate(-756.723682, -751.545280) translate(738.723682, 719.545280)" sketch:type="MSShapeGroup">
                <path d="M19,63 C19,63 36,47.3888407 36,38 C36,28.6111593 28.3888407,21 19,21 C9.61115925,21 2,28.6111593 2,38 C2,47.3888407 19,63 19,63 Z" id="Oval-690"></path>
                <path d="M15.9568359,21.0929459 C15.9568359,21.0929459 20.251642,14.901274 11.0517568,12.896092 C1.85187168,10.89091 -3.56220873,3.20305682 3.02222156,3.20305685 C9.60665186,3.20305688 10.8263167,8.22606026 11.837274,7.11303015 C12.8482312,6.00000004 12.2802279,0.812161027 15.0788532,0.812161018 C17.8774785,0.812161008 15.755173,6.8567684 17.8774782,9.8764302 C19.9997834,12.896092 25.2395006,6.09855034 26.4750164,6.09855059 C27.7105321,6.09855085 25.0871518,8.48856628 22.914651,13.6349361 C20.7421502,18.7813058 19.7893143,20.6931424 19.7893143,20.6931424 L15.9568359,21.0929459 Z" id="Path-1568"></path>
                <path d="M22.4194225,31.9406888 C22.4194225,25.3132718 17.0468395,19.9406888 10.4194225,19.9406888" id="Oval-691" transform="translate(16.419423, 31.940689) rotate(-112.000000) translate(-16.419423, -31.940689) "></path>
            </g>
        </g>
    </g>
</svg>